<?xml version="1.0" encoding="utf-8"?>
<!-- Generator: Adobe Illustrator 23.0.1, SVG Export Plug-In . SVG Version: 6.00 Build 0)  -->
<svg version="1.1" xmlns="http://www.w3.org/2000/svg" xmlns:xlink="http://www.w3.org/1999/xlink" x="0px" y="0px"
	 viewBox="0 0 1920 1080" style="enable-background:new 0 0 1920 1080;" xml:space="preserve">
<style type="text/css">
	.st0{fill:#94D3E6;}
</style>
<g id="Layer_2">
</g>
<g id="Layer_1">
	<path class="st0" d="M1637.8,266c-71,56.3-112.9,151.3-192.1,195.7c-52.6,29.5-111.2,32.9-170.3,32.9c-17.7,0-35.4-0.3-53-0.3
		c-12.7,0-25.4,0.2-37.9,0.7c-216,9.5-284.8,112.3-464.6,209c-63,33.9-120.1,47.9-173.1,47.9C310.4,752.2,156.2,472-59.8,419v1.2
		c215.1,53,369.4,332.9,606.6,333.1c53.2,0,110.6-14.1,173.7-48.1c180.1-96.9,248.6-199.5,464.1-208.9c12.5-0.5,25.2-0.7,37.9-0.7
		c17.6,0,35.3,0.3,53,0.3c59.1,0,118-3.4,170.9-33.1C1526,418,1567.9,323,1638.6,267c88.2-69.9,195.1-126.1,305.6-176.4v-1.3
		C1833.4,139.7,1726.3,195.9,1637.8,266"/>
	<path class="st0" d="M1873.8,127c-79.7,35.6-156.1,75.5-221.8,125.6c-29.8,22.8-54.6,52.5-78.8,83.4
		c-34,43.5-65.6,87.6-109.8,114.9c-49.3,30.4-104.8,36.3-165.1,36.8c-2.8,0-5.7,0-8.5,0c-17.7,0-35.4-0.3-52.8-0.3
		c-11.1,0-22,0.1-32.9,0.5c-85.5,3.3-147.3,21.6-203.7,52.8c-81.1,44.9-145.4,109-254.4,164.4C691.1,733,645,741.3,600.3,741.3
		c-17.7,0-35.2-1.3-53-3.3c-71-7.5-134.3-27.9-192.6-57.2c-58.8-29.5-114.7-68-176.2-110.2C113.5,526,49.5,478.3-21.5,456.2
		c-12.8-3.9-25.5-7.1-38.3-9.5v1.2c12.7,2.4,25.3,5.5,38,9.4C48.8,479.3,112.8,527,178,571.7c61.5,42.2,117.4,80.7,176.3,110.3
		c58.4,29.3,121.8,49.7,193,57.3c17.8,1.9,35.3,3.3,53.1,3.3c44.8,0,91.1-8.4,146.1-36.3c109.2-55.5,173.6-119.7,254.5-164.4
		c56.3-31.1,117.8-49.4,203.2-52.7c10.8-0.4,21.8-0.5,32.9-0.5c17.4,0,35.1,0.3,52.8,0.3c2.8,0,5.7,0,8.5,0
		c60.4-0.5,116.1-6.4,165.7-37c44.5-27.4,76.1-71.7,110.1-115.1c24.2-30.9,48.9-60.6,78.6-83.2c65.6-50.1,141.9-89.9,221.6-125.5
		c23.1-10.3,46.5-20.4,70-30.5v-1.3C1920.6,106.4,1897,116.6,1873.8,127"/>
	<path class="st0" d="M1890.7,123.1c-80.3,31.5-158,67.2-224.6,116.1c-30.1,22.2-55.2,51.5-79.4,83c-34,44.3-63.7,89.3-105.7,117.8
		c-46.9,31.8-100.4,39.8-163,40.7c-4.2,0-8.5,0.1-12.7,0.1c-18.3,0-36.5-0.4-54.3-0.4c-9.2,0-18.4,0.1-27.4,0.4
		c-84.6,2.7-145.2,20.6-202.2,55.8C942.8,585.1,882,653.3,771.8,706.2c-44,21.1-80.2,27.6-114.6,27.6c-29.2,0-57.2-4.7-87.5-8.9
		c-74.1-10.3-139.7-23.3-197.9-44.1c-59.3-21.2-115.3-50.3-182.4-89.6c-69.4-40.7-136.1-91-211-109.6c-12.9-3.2-25.6-5.6-38.2-7.3
		v1.2c12.5,1.7,25.1,4.1,37.9,7.3c74.6,18.5,141.2,68.7,210.7,109.5c67.1,39.4,123.2,68.5,182.6,89.7c58.4,20.9,124,33.9,198.2,44.2
		c30.3,4.2,58.3,8.9,87.7,8.9c34.5,0,71-6.5,115.1-27.7c110.4-53,171.3-121.3,249.6-169.7c56.8-35.1,117.1-52.8,201.6-55.6
		c9-0.3,18.2-0.4,27.4-0.4c17.8,0,36,0.3,54.3,0.3c4.2,0,8.5,0,12.7-0.1c62.7-0.8,116.5-8.9,163.7-40.9c42.3-28.7,72-73.8,106-118.1
		c24.2-31.5,49.3-60.8,79.2-82.8c66.4-48.8,144-84.5,224.3-116c17.6-6.9,35.3-13.8,53.1-20.8v-1.3
		C1926.3,109.2,1908.4,116.2,1890.7,123.1"/>
	<path class="st0" d="M1907.6,119.3c-80.9,27.5-159.9,59-227.3,106.6c-30.3,21.5-55.9,50.5-80.1,82.7
		c-33.9,45.1-61.7,91-101.6,120.8c-44.5,33.2-96.1,43.3-160.9,44.5c-5.3,0.1-10.6,0.1-15.9,0.1c-19.4,0-38.4-0.4-57.1-0.4
		c-7.3,0-14.5,0.1-21.7,0.2c-83.7,2.2-143.2,19.4-200.7,58.7c-76,51.9-133.4,124.3-244.5,174.8c-36.1,16.4-65.9,21.9-93.3,21.9
		c-38.2,0-72.1-10.7-112.4-17.5c-77.2-12.9-145.3-18.6-203.3-31.1c-60-12.9-115.8-32.6-188.5-69c-73.5-36.8-143-89.4-221.9-104.8
		c-13-2.5-25.6-4.3-38.1-5.3v1.2c12.4,1,25,2.8,37.9,5.3c78.5,15.3,147.9,67.8,221.6,104.7c72.8,36.5,128.7,56.2,188.8,69.1
		c58.1,12.5,126.2,18.1,203.3,31.1c40.2,6.7,74.2,17.5,112.6,17.5c27.6,0,57.6-5.5,93.8-22c111.4-50.7,168.9-123.2,244.7-174.9
		c57.4-39.2,116.5-56.3,200.1-58.5c7.2-0.2,14.4-0.3,21.7-0.3c18.6,0,37.7,0.4,57.1,0.4c5.3,0,10.6,0,15.9-0.1
		c65-1.2,116.8-11.4,161.6-44.7c40.2-30,67.9-76,101.8-121c24.1-32.1,49.6-61,79.8-82.4c67.2-47.5,146.2-79,227-106.5
		c12.1-4.1,24.2-8.3,36.3-12.5v-1.3C1932,110.9,1919.8,115.1,1907.6,119.3"/>
	<path class="st0" d="M1924.5,115.4c-81.4,23.5-161.8,50.7-230.1,97.1c-30.6,20.9-56.5,49.5-80.7,82.3
		c-33.9,45.9-59.7,92.7-97.5,123.7c-42.2,34.6-91.7,46.9-158.8,48.3c-6.5,0.1-12.9,0.2-19.3,0.2c-20.6,0-40.7-0.5-60.3-0.5
		c-5.2,0-10.3,0-15.3,0.1c-82.8,1.7-141.1,18.1-199.2,61.6C989.7,583.4,935.8,660,823.7,708.3c-30.9,13.3-56.5,18.1-79.6,18.1
		c-45.4,0-81.5-18.5-129.7-27.9c-80.3-15.6-151.1-13.8-208.7-18c-61-4.5-116.1-15-194.7-48.4c-77.5-33-149.9-87.8-232.8-99.9
		c-13-1.9-25.7-3.1-38-3.5v1.2c12.3,0.4,24.9,1.6,37.8,3.5c82.4,12.1,154.7,66.7,232.5,99.8c78.7,33.5,134,44,195.1,48.5
		c57.7,4.3,128.3,2.4,208.5,18c48,9.3,84.2,27.9,129.9,27.9c23.3,0,49.1-4.9,80.1-18.2c112.4-48.5,166.4-125.2,239.8-180.2
		c57.9-43.4,115.8-59.7,198.5-61.4c5.1-0.1,10.2-0.1,15.3-0.1c19.6,0,39.7,0.6,60.3,0.6c6.4,0,12.8-0.1,19.3-0.2
		c67.2-1.4,117.1-13.9,159.6-48.6c38.1-31.3,63.8-78.1,97.7-124c24.1-32.7,49.9-61.2,80.4-82c68-46.2,148.4-73.5,229.7-96.9
		c6.5-1.9,12.9-3.8,19.4-5.7v-1.3C1937.6,111.5,1931.1,113.5,1924.5,115.4"/>
	<path class="st0" d="M1941.4,111.5c-81.9,19.5-163.8,42.5-232.8,87.6c-30.9,20.3-57.2,48.5-81.3,81.9
		c-33.9,46.7-57.7,94.4-93.4,126.7c-39.8,35.9-87.3,50.4-156.7,52.2c-7.1,0.2-14.1,0.3-21.1,0.3c-22.1,0-43.5-0.7-64.2-0.7
		c-3.3,0-6.6,0-9.8,0.1c-81.9,1.2-139.2,16.7-197.7,64.6c-71.2,58.3-121.7,139.1-234.6,185.3c-27.3,11.2-50.1,15.4-70.4,15.4
		c-51.7,0-87.9-27.5-142.6-39.4c-37.7-8.2-73.4-10.8-106.4-10.8c-40.1,0-76.4,3.8-107.6,5.8c-14.9,1-29.4,1.6-44,1.6
		c-46,0-92.7-6.5-156.9-29.5c-81.5-29.3-156.8-86.1-243.6-95c-12.3-1.3-24.2-1.9-35.7-1.9c-0.7,0-1.5,0-2.2,0v1.2c0.7,0,1.5,0,2.2,0
		c11.5,0,23.3,0.6,35.6,1.9c86.4,8.8,161.6,65.6,243.4,95c64.2,23.1,111.2,29.6,157.3,29.6c14.6,0,29.1-0.7,44.1-1.6
		c31.3-2.1,67.5-5.8,107.6-5.8c33,0,68.6,2.6,106.2,10.8c54.3,11.8,90.7,39.4,142.8,39.4c20.5,0,43.5-4.3,70.9-15.5
		C963.4,664.1,1014,583,1085.1,525c58.4-47.7,115.2-63.1,196.9-64.3c3.3,0,6.5-0.1,9.8-0.1c20.7,0,42.1,0.7,64.2,0.7
		c7,0,14-0.1,21.1-0.3c69.5-1.8,117.5-16.3,157.5-52.5c35.9-32.5,59.7-80.3,93.6-126.9c24.1-33.3,50.3-61.4,81-81.6
		c68.8-44.9,150.6-67.9,232.4-87.4c0.9-0.2,1.7-0.4,2.6-0.6v-1.2C1943.3,111.1,1942.3,111.3,1941.4,111.5"/>
	<path class="st0" d="M1722.7,185.7c-31.2,19.7-57.8,47.6-81.9,81.5c-33.8,47.5-55.7,96.1-89.3,129.7c-37.4,37.3-83,53.9-154.7,56.1
		c-7.6,0.2-15.1,0.3-22.6,0.3c-23.7,0-46.4-0.9-68.2-0.9c-1.5,0-3.1,0-4.6,0c-81,0.7-137.2,15.2-196.2,67.5
		c-69,61.2-115.9,146.3-229.7,190.5c-24.7,9.6-45.4,13.4-63.9,13.4c-57.5,0-92.5-37.1-152.8-51.6c-29.3-7-57.4-9.7-84-9.7
		c-52,0-98.1,10.2-135.4,17.8c-31.5,6.4-60.5,11.4-92.9,11.4c-32.7,0-68.8-5-114.2-18.7C147.1,647.3,68.8,588.5-22,582.8
		c-7.8-0.5-15.4-0.7-22.9-0.7c-5.1,0-10,0.1-14.9,0.4v1.2c4.9-0.2,9.9-0.4,14.9-0.4c7.4,0,15,0.3,22.8,0.7
		c90.3,5.7,168.6,64.3,254.2,90.1c45.5,13.7,81.7,18.7,114.5,18.7c32.5,0,61.6-5,93.1-11.4c37.3-7.6,83.3-17.8,135.2-17.8
		c26.5,0,54.5,2.7,83.7,9.7c59.8,14.4,95,51.6,153,51.6c18.6,0,39.5-3.8,64.3-13.5c114.2-44.4,161.3-129.8,230-190.7
		c58.8-52.1,114.5-66.5,195.4-67.2c1.5,0,3.1,0,4.6,0c21.8,0,44.5,0.9,68.2,0.9c7.4,0,15-0.1,22.6-0.3
		c71.8-2.1,117.8-18.8,155.5-56.4c33.8-33.8,55.6-82.4,89.4-129.8c24.1-33.8,50.6-61.6,81.6-81.2c65.6-41.1,143.3-60.1,220.9-75.1
		v-1.2C1866.5,125.4,1788.6,144.4,1722.7,185.7"/>
	<path class="st0" d="M1736.8,172.3c-31.5,19.1-58.4,46.6-82.6,81.1c-33.8,48.3-53.7,97.8-85.2,132.6c-35,38.7-78.6,57.4-152.6,59.9
		c-8.1,0.3-16,0.4-23.8,0.4c-25.1,0-49-1.1-71.8-1.1c-80.1,0.2-135.4,13.6-194.7,70.4c-66.8,64-110.2,153.5-224.7,195.7
		c-22.7,8.4-41.9,11.8-58.9,11.8c-63,0.1-96-47.1-161.3-64.2c-25.6-6.7-50.3-9.4-73.9-9.4c-59.1,0-111,16.9-150.9,30.6
		c-41.2,14.1-77.7,25.4-123.8,25.4c-25.9,0-54.8-3.5-89.4-12.1C154,671.3,72.6,610.7-22,608.1c-3.4-0.1-6.8-0.1-10.2-0.1
		c-9.5,0-18.6,0.4-27.6,1.1v1.2c8.9-0.7,18.1-1.1,27.6-1.1c3.3,0,6.7,0,10.2,0.1c94.2,2.5,175.5,63,265.1,85.3
		c34.7,8.6,63.7,12.2,89.7,12.2c46.3,0,82.9-11.3,124.2-25.4c39.9-13.7,91.6-30.5,150.5-30.5c23.5,0,48.1,2.7,73.6,9.3
		c64.8,16.9,97.9,64.2,161.6,64.3c17.2,0,36.5-3.5,59.3-11.9c115-42.5,158.5-132.2,225.1-196c59.1-56.6,113.9-69.9,193.8-70.1
		c22.8,0,46.6,1.1,71.8,1.1c7.8,0,15.8-0.1,23.8-0.4c74.1-2.4,118.2-21.3,153.4-60.3c31.6-35.1,51.5-84.6,85.3-132.8
		c24.1-34.4,50.9-61.8,82.2-80.7c61.6-37.1,134.1-52.7,206.8-63.8v-1.2C1871.5,119.4,1798.8,135.1,1736.8,172.3"/>
	<path class="st0" d="M1751,158.9c-31.7,18.4-59.1,45.6-83.2,80.7c-33.8,49.1-51.7,99.5-81.1,135.6c-32.7,40.1-74.3,60.9-150.5,63.8
		c-8.4,0.3-16.7,0.4-24.8,0.4c-25,0-48.6-1.1-71-1.3c-1.1,0-2.1,0-3.2,0c-77.5,0-131.2,12.8-190,73.4
		c-64.7,66.7-104.5,160.5-219.8,201c-21.1,7.4-39.1,10.5-55.1,10.5c-68.5,0.1-98.8-57.5-168.8-77.2c-23.5-6.6-46.3-9.3-68.2-9.3
		c-64.4,0-120.6,23.9-161.9,43.6c-48.1,23.1-88.9,41.6-147.8,41.6c-21.1,0-44.6-2.4-71.5-7.8c-92.7-18.6-176.8-80.5-274.8-80.5
		c-0.5,0-1,0-1.5,0c-13.1,0.1-25.6,0.8-37.6,2.2v1.2c12-1.4,24.5-2.2,37.6-2.2c0.5,0,1,0,1.5,0c97.5,0,181.5,61.7,274.6,80.5
		c27,5.4,50.6,7.8,71.8,7.8c59.2,0,100.2-18.7,148.4-41.7c41.2-19.8,97.3-43.5,161.4-43.5c21.8,0,44.5,2.7,67.9,9.3
		c69.5,19.4,99.8,77.1,169.1,77.2c16.1,0,34.3-3.1,55.5-10.6c115.8-40.6,155.7-134.8,220.2-201.3c58.6-60.4,111.8-73,189.1-73
		c1.1,0,2.1,0,3.2,0c22.4,0.2,46,1.3,71,1.3c8.1,0,16.4-0.1,24.8-0.4c76.4-2.8,118.5-23.8,151.4-64.2
		c29.5-36.3,47.5-86.7,81.1-135.7c24-35,51.3-62,82.8-80.3c57.6-33.2,125-46.1,192.6-53.9v-1.2
		C1876.4,112.6,1808.9,125.5,1751,158.9"/>
	<path class="st0" d="M1765.1,145.5c-32,17.8-59.7,44.6-83.8,80.3c-33.7,49.9-49.7,101.2-76.9,138.6
		c-30.3,41.5-69.9,64.4-148.4,67.6c-8.7,0.4-17.3,0.5-25.7,0.5c-24.9,0-48.2-1.2-70.3-1.5c-2.7,0-5.3,0-7.9,0
		c-74,0-126,12.5-183.7,76.4c-62.7,69.4-98.8,167.6-214.8,206.2c-19.8,6.6-36.9,9.4-51.9,9.4c-74,0.1-101.1-68-175.6-90.3
		c-22.3-6.6-43.9-9.5-64.7-9.5c-68.9,0-128.6,30.9-170.8,56.9c-53.4,32.9-97.1,59.2-168.7,59.2c-17.2,0-36-1.5-56.9-4.8
		c-94.3-14.9-179.6-75.8-278.4-75.8c-2.9,0-5.8,0.1-8.7,0.2c-13.2,0.5-25.6,1.6-37.6,3.4v1.2c11.9-1.8,24.4-2.9,37.6-3.4
		c2.9-0.1,5.8-0.2,8.7-0.2c98.3,0,183.6,60.8,278.3,75.8c21,3.3,39.8,4.8,57.1,4.8c71.9,0,115.9-26.5,169.3-59.3
		c42.1-25.9,101.6-56.7,170.1-56.7c20.7,0,42.2,2.8,64.4,9.4c73.9,21.9,101,90.3,175.9,90.4c15.2,0,32.4-2.8,52.3-9.5
		c116.6-38.9,152.8-137.4,215.3-206.5c57.5-63.6,108.9-76,182.8-76c2.6,0,5.2,0,7.9,0c22.1,0.3,45.5,1.5,70.4,1.5
		c8.4,0,17-0.1,25.7-0.5c78.7-3.2,118.8-26.3,149.3-68.1c27.4-37.6,43.3-88.9,77-138.6c24-35.6,51.6-62.2,83.4-79.9
		c53.6-29.6,115.7-40.3,178.5-45.4v-1.2C1881.3,105.1,1819,115.8,1765.1,145.5"/>
	<path class="st0" d="M1779.3,132.1c-32.3,17.2-60.4,43.6-84.4,79.9c-33.7,50.7-47.8,103-72.8,141.6
		c-27.9,42.9-65.5,67.9-146.3,71.5c-9,0.4-17.8,0.5-26.4,0.5c-24.8,0-47.9-1.3-69.8-1.7c-4.3-0.1-8.5-0.1-12.6-0.1
		c-70.6,0-121,12.4-177.5,79.4c-60.8,72-93.1,174.5-209.9,211.4c-18.7,5.9-34.9,8.5-49.3,8.5c-79.4,0.1-103-78.7-181.8-103.6
		c-21.5-6.8-42.4-9.7-62.5-9.7c-72.8,0-135.5,38-178.3,70.2c-57.7,43.3-103.4,77.7-187.9,77.7c-13.6,0-28.1-0.9-43.9-2.8
		c-96-11.4-182.5-71.3-282.3-71.3c-5.2,0-10.5,0.2-15.7,0.5c-13.1,0.8-25.6,2.3-37.5,4.4v1.2c11.9-2.1,24.4-3.6,37.5-4.4
		c5.3-0.3,10.5-0.5,15.7-0.5c99.3,0,185.8,59.8,282.1,71.3c15.8,1.9,30.4,2.8,44.1,2.8c84.9,0,131-34.6,188.6-77.9
		C551,648.8,613.5,611,685.8,611c20,0,40.8,2.9,62.2,9.6c78.1,24.5,101.8,103.6,182.2,103.7c14.5,0,30.9-2.6,49.7-8.5
		c117.4-37.2,149.8-140.1,210.4-211.8c56.4-66.7,106.1-78.9,176.6-79c4.1,0,8.3,0,12.6,0.1c21.8,0.4,45,1.7,69.8,1.7
		c8.6,0,17.4-0.2,26.5-0.6c81-3.5,119.2-28.8,147.3-72c25.2-38.9,39.3-91,72.8-141.6c24-36.2,51.9-62.4,84-79.5
		c49.5-26.2,106.5-36,164.4-39v-1.2C1886.2,96,1829,105.8,1779.3,132.1"/>
	<path class="st0" d="M1793.4,118.7c-32.6,16.6-61,42.6-85.1,79.5c-33.6,51.5-45.8,104.7-68.7,144.5
		c-25.6,44.3-61.2,71.2-144.2,75.3c-9.2,0.4-18.2,0.6-26.9,0.6c-24.8,0-47.9-1.3-69.5-1.9c-5.8-0.1-11.5-0.2-17.1-0.2
		c-67.4,0-116.3,12.5-171.6,82.4c-59,74.6-87.5,181.4-204.9,216.6c-17.8,5.3-33.3,7.7-47.1,7.7c-84.9,0.1-104.8-89.5-187.7-117
		c-21-6.9-41.4-9.9-61.1-9.9c-76.3,0-141.6,45.1-185,83.5c-61.2,54.2-108.5,96.8-206.2,96.8c-10,0-20.6-0.5-31.8-1.4
		c-97.7-8.1-185.5-66.9-286.3-66.9c-7.5,0-15,0.3-22.6,1c-13.1,1.2-25.6,3-37.4,5.4v1.2c11.9-2.4,24.3-4.2,37.5-5.4
		c7.6-0.7,15.1-1,22.5-1c100.3,0,188.1,58.7,286.2,66.9c11.2,0.9,21.8,1.4,31.9,1.4c98.1,0,145.9-42.9,207-97.1
		c43.3-38.3,108.4-83.2,184.2-83.2c19.6,0,39.9,3,60.8,9.9c82.2,27,102.1,117,188.1,117.1c13.9,0,29.5-2.4,47.4-7.7
		c118.1-35.5,146.8-142.8,205.5-217.1c55.1-69.6,103.3-81.9,170.6-82c5.5,0,11.2,0.1,17,0.2c21.6,0.6,44.7,1.9,69.6,1.9
		c8.8,0,17.7-0.2,27-0.6c83.3-4,119.5-31.3,145.2-75.9c23.1-40.1,35.2-93.2,68.7-144.5c24-36.8,52.3-62.7,84.6-79.1
		c45.5-23,97.3-30.5,150.3-32.1v-1.2C1891.2,88.1,1839.1,95.6,1793.4,118.7"/>
	<path class="st0" d="M1807.6,105.3c-32.8,15.9-61.6,41.6-85.7,79.1c-33.6,52.4-43.8,106.4-64.6,147.5
		c-23.2,45.7-56.8,74.7-142.2,79.1c-9.5,0.5-18.6,0.7-27.6,0.7c-24.8,0-47.7-1.4-69.1-2.1c-7.3-0.2-14.4-0.4-21.3-0.4
		c-64.4,0-112,12.8-165.8,85.5c-57.2,77.2-81.8,188.2-200,221.9c-17,4.8-31.9,7-45.1,7c-90.5,0.1-106.3-100.3-193.3-130.6
		c-20.7-7.1-40.8-10.2-60.2-10.2c-79.7,0-147.4,52.1-191.3,96.9c-64.2,65.5-112.8,116.5-224.2,116.5c-6.5,0-13.1-0.2-20-0.5
		c-99.4-5-188.5-62.7-290.3-62.7c-9.7,0-19.5,0.5-29.4,1.7c-13.1,1.5-25.5,3.6-37.3,6.3v1.2c11.8-2.7,24.3-4.8,37.4-6.3
		c9.9-1.1,19.6-1.7,29.3-1.7c101.3,0,190.5,57.6,290.3,62.7c6.9,0.4,13.6,0.5,20.1,0.5c111.8,0,160.9-51.4,225-116.9
		c43.7-44.7,111.3-96.5,190.4-96.5c19.3,0,39.3,3.1,59.8,10.1c86.2,29.7,102.1,130.5,193.7,130.6c13.4,0,28.4-2.2,45.5-7
		c118.9-33.9,143.6-145.5,200.6-222.3c53.8-72.5,100.7-85,164.9-85c6.9,0,13.9,0.1,21.2,0.4c21.4,0.7,44.3,2.1,69.1,2.1
		c8.9,0,18.2-0.2,27.7-0.7c85.5-4.4,119.9-33.8,143.2-79.8c20.9-41.4,31.1-95.3,64.6-147.4c24-37.3,52.6-62.9,85.2-78.7
		c41.4-20,88.1-26.5,136.1-27v-1.2C1896.1,78.8,1849.2,85.3,1807.6,105.3"/>
	<path class="st0" d="M1944.1,69c-43.1,0-84.9,5.7-122.4,22.9c-33.1,15.3-62.3,40.7-86.3,78.8c-33.6,53.2-41.8,108.1-60.5,150.5
		c-20.9,47.1-52.5,78.1-140.1,83c-9.7,0.5-19.1,0.7-28.2,0.7c-24.8,0-47.5-1.5-68.7-2.3c-8.7-0.3-17-0.6-25.1-0.6
		c-61.6,0-108,13.2-160.5,88.6c-55.5,79.7-76.2,195-195,227.1c-16.2,4.4-30.5,6.3-43.3,6.3c-96.1,0.2-107.8-111.3-198.7-144.2
		c-20.5-7.3-40.5-10.6-59.8-10.6c-82.8,0-152.7,59.3-197,110.3C491.7,756.7,442,816.3,316.6,816.3c-2.8,0-5.6,0-8.5-0.1
		c-101.2-2.1-191.8-58.6-294.8-58.6c-11.8,0-23.7,0.7-35.9,2.4c-13.1,1.8-25.5,4.2-37.2,7.2v1.2c11.8-2.9,24.2-5.4,37.4-7.2
		c12.1-1.6,24-2.4,35.7-2.4c102.6,0,193.1,56.5,294.8,58.6c2.9,0.1,5.7,0.1,8.5,0.1c125.9,0,176.1-60,242.8-137.1
		c44.1-51,113.9-109.9,196.1-109.9c19.2,0,39,3.2,59.4,10.5C905,613.3,916.7,725.1,1014,725.2c12.9,0,27.3-2,43.6-6.4
		c119.6-32.4,140.4-148.3,195.7-227.6c52.5-75.2,98.1-88.1,159.5-88.1c8.1,0,16.4,0.2,25,0.6c21.2,0.9,43.9,2.3,68.7,2.3
		c9.1,0,18.5-0.2,28.3-0.7c87.8-4.7,120.2-36.3,141.1-83.7c18.8-42.7,27-97.4,60.4-150.3c24-37.9,52.9-63.1,85.8-78.3
		c37.2-17.2,78.9-22.8,121.9-22.8c0,0,0.1,0,0.1,0V69C1944.2,69,1944.2,69,1944.1,69"/>
	<path class="st0" d="M1942.1,59.1c-37.4,0-73.5,5.1-106.3,19.5c-33.4,14.7-62.9,39.7-87,78.4c-33.5,54-39.8,109.8-56.4,153.5
		c-18.5,48.5-48.1,81.6-138,86.8c-9.9,0.5-19.5,0.8-28.8,0.8c-24.8,0-47.4-1.6-68.4-2.6c-9.9-0.5-19.4-0.8-28.6-0.8
		c-59,0-104.3,13.7-155.5,91.8c-53.9,82.3-70.5,201.8-190.1,232.3c-15.5,4-29.3,5.8-41.6,5.8c-101.8,0.2-109.2-122.3-204-157.8
		c-20.5-7.6-40.4-10.9-59.7-10.9c-85.7,0-157.8,66.4-202.4,123.8c-68.5,88.2-119,156.1-256.6,157.1c-0.7,0-1.3,0-2,0
		c-102.1,0-193.4-54.6-296.8-54.7c-14,0-28.2,1-42.7,3.3c-13.1,2.1-25.4,4.7-37.1,7.9v1.2c11.8-3.2,24.2-5.9,37.3-8
		c14.4-2.3,28.6-3.3,42.5-3.3c103,0,194.3,54.6,296.8,54.7c0.7,0,1.3,0,2,0C457,837,508,768.5,576.5,680.3
		C620.9,623,692.8,556.9,777.9,557c19.1,0,38.9,3.3,59.3,10.9c94,34.8,101.4,157.7,204.4,157.9c12.5,0,26.3-1.8,41.9-5.8
		c120.4-30.9,137.1-151,190.8-232.9c51.1-77.9,95.6-91.2,154.5-91.2c9.1,0,18.6,0.3,28.5,0.8c21,1,43.6,2.6,68.4,2.6
		c9.3,0,18.9-0.2,28.8-0.8c90.1-5.1,120.6-38.8,139.1-87.6c16.7-43.9,22.9-99.6,56.3-153.3c23.9-38.5,53.3-63.3,86.4-77.9
		c32.6-14.3,68.5-19.4,105.8-19.4c0.7,0,1.4,0,2.1,0v-1.2C1943.5,59.1,1942.8,59.1,1942.1,59.1"/>
	<path class="st0" d="M1943.3,48.5c-32.8,0-64.4,4.6-93.4,16.6c-33.7,14.1-63.6,38.7-87.6,78c-33.5,54.8-37.8,111.5-52.3,156.5
		c-16.1,49.9-43.8,85.1-135.9,90.7c-10.1,0.6-19.9,0.8-29.3,0.8c-24.8,0-47.2-1.7-68-2.8c-11-0.6-21.5-1-31.7-1
		c-56.8,0-101.1,14.2-150.9,95c-52.3,84.8-64.9,208.5-185.1,237.6c-14.9,3.6-28.1,5.2-40.1,5.2c-107.6,0.2-110.5-133.4-209.2-171.5
		c-20.5-7.9-40.5-11.3-59.8-11.3c-88.6,0-162.6,73.5-207.6,137.3c-68.8,97.6-119.4,173-262.8,177.7c-3.2,0.1-6.4,0.2-9.6,0.2
		c-100.8,0-191.4-50.9-293.3-51c-16.2,0-32.7,1.3-49.5,4.3c-13.1,2.3-25.4,5.2-37.1,8.6v1.3c11.8-3.4,24.1-6.3,37.3-8.7
		c16.8-3,33.2-4.3,49.3-4.3c101.5,0,192.1,50.9,293.3,51c3.2,0,6.4-0.1,9.7-0.2c143.9-4.7,195.1-80.6,263.8-178.2
		c44.8-63.7,118.7-136.8,206.6-136.8c19.2,0,39,3.5,59.4,11.3C957.4,592,960.2,726,1069.1,726.2c12.1,0,25.4-1.7,40.4-5.3
		c121.1-29.4,133.7-153.8,185.9-238.1c49.8-80.5,93.3-94.4,149.9-94.4c10.1,0,20.6,0.4,31.6,1c20.8,1.1,43.3,2.8,68.1,2.8
		c9.4,0,19.2-0.2,29.4-0.8c92.4-5.4,120.9-41.3,137-91.5c14.5-45.2,18.8-101.7,52.2-156.2c23.9-39.1,53.6-63.5,87-77.5
		c28.8-12,60.2-16.5,92.9-16.5c0.3,0,0.6,0,0.9,0v-1.2C1943.9,48.5,1943.6,48.5,1943.3,48.5"/>
	<path class="st0" d="M1775.9,129.3c-35.3,58.6-36,119.5-50.3,166.9c-14.4,47.4-42,81.4-131.7,87c-10.3,0.6-20.2,0.9-29.8,0.9
		c-39.3,0-72.4-4.3-102.2-4.3c-54.7,0-98.1,14.9-146.6,98.2c-50.8,87.4-59.3,215.1-180.2,242.8c-14.2,3.3-27,4.8-38.6,4.8
		C983,725.8,984.8,581.1,882.2,540.3c-20.6-8.1-40.7-11.8-60.1-11.8c-91.4,0-167.3,80.6-212.6,150.8
		c-69,107-119.8,189.8-269.1,198.3c-5.7,0.3-11.4,0.5-17.1,0.5c-99.5,0-189.4-47.5-289.9-47.5c-18.4,0-37.1,1.6-56.3,5.4
		c-13,2.6-25.3,5.7-37,9.2v1.3c11.7-3.6,24.1-6.7,37.2-9.3c19.1-3.8,37.8-5.3,56.1-5.3c100.1,0,190,47.5,289.9,47.5
		c5.7,0,11.4-0.2,17.2-0.5c149.8-8.5,201.1-91.9,270-198.8c45.2-70.1,121-150.3,211.6-150.3c19.2,0,39.2,3.6,59.6,11.7
		c101.7,39.9,99.9,185.1,214.8,185.3c11.7,0,24.5-1.5,38.8-4.8c121.9-28,130.3-156.5,181-243.4c48.5-83.1,91.1-97.6,145.6-97.6
		c29.7,0,62.8,4.3,102.2,4.3c9.6,0,19.5-0.3,29.9-0.9c90-5.5,118.5-40.2,132.8-87.9c14.4-47.7,15-108.3,50.1-166.6
		c41.5-68.9,101.5-90.6,167.3-91.2v-1.2C1878.2,38.1,1817.6,60,1775.9,129.3"/>
	<path class="st0" d="M1538.6,776.7c-44.3-8.2-87.8-11.7-130.7-11.7c-114.8,0-226.1,25-341.5,52c-115.2,27-229.1,52.3-343.9,52.3
		c-61.6,0-123.5-7.3-186.1-25.6c-167.9-49-326.7-147.6-458-262.2C21.7,532-23.7,478.9-59.8,418.5v1.9
		c36,59.9,81.2,112.7,137.6,161.9C209.2,697,368,795.7,536.2,844.8c62.6,18.3,124.7,25.6,186.4,25.6c115,0,228.9-25.4,344.1-52.4
		c115.3-27,226.6-52,341.2-52c42.9,0,86.3,3.5,130.5,11.7c137.7,25.5,270.1,54.9,405.8,70.3v-1
		C1808.6,831.6,1676.3,802.2,1538.6,776.7"/>
	<path class="st0" d="M1667.7,798.6c-43.2-6.7-86.7-13.6-130.7-20c-35.7-5.3-70.8-7.6-105.6-7.6c-122.8,0-241.3,29-364.8,59.3
		c-117.8,29.2-234.8,55.6-352.8,55.6c-61.4,0-123.1-7.1-185.3-24.7C359.2,813.1,199.9,715.8,68,601.5
		c-51-44.2-93.1-91.4-127.8-144.1v1.8c34.6,52.3,76.4,99.1,127.1,143C199.4,716.6,358.7,814,528.1,862
		c62.4,17.6,124.1,24.7,185.6,24.7c118.2,0,235.3-26.4,353.1-55.6c123.5-30.3,241.9-59.2,364.6-59.2c34.8,0,69.8,2.3,105.5,7.6
		c44,6.5,87.4,13.3,130.7,20c92.4,14.2,183.7,28.3,276.7,36.6v-1C1851.3,826.8,1760,812.8,1667.7,798.6"/>
	<path class="st0" d="M1665.5,795.2c-43.1-5-86.3-10.1-130.1-14.8c-26.9-3-53.6-4.3-80-4.3c-131.1,0-256.9,33.2-388.7,67.3
		c-120.6,31.2-240.9,58.7-362.4,58.7c-61,0-122.2-6.9-184-23.8c-170.5-46.9-330.3-142.9-462.9-257c-45.7-39.3-84.4-81.1-117.3-127
		v1.7c32.7,45.5,71.3,87,116.6,126c132.7,114.2,292.6,210.2,463.3,257.2c61.9,16.9,123.2,23.8,184.2,23.8
		c121.7,0,242-27.5,362.7-58.8c131.8-34.1,257.5-67.3,388.4-67.3c26.4,0,53,1.3,79.9,4.3c43.7,4.7,87,9.8,130.1,14.9
		c92.9,10.6,185,21.8,278.8,27.9v-1C1850.4,817,1758.4,805.8,1665.5,795.2"/>
	<path class="st0" d="M1663.3,791.9c-42.9-3.3-86-6.7-129.4-9.7c-17.8-1.3-35.4-1.9-52.9-1.9c-139.9,0-273.4,38.1-414,76.2
		c-123.3,33.4-246.8,61.9-371.7,61.9c-60.6,0-121.5-6.7-182.9-22.9C340.6,849.8,180.3,755.1,47,641.2C6.3,606.4-29,569.7-59.8,529.8
		v1.6C-29.2,571,6,607.5,46.3,642c133.4,113.9,293.8,208.7,465.8,254.6c61.5,16.2,122.5,22.9,183.2,22.9c125,0,248.6-28.6,372-62
		c140.7-38.1,274-76.1,413.8-76.1c17.5,0,35.1,0.6,52.8,1.9c43.5,3,86.5,6.3,129.4,9.7c93.5,6.9,186.2,15.2,281,19.1v-1
		C1849.5,807.1,1756.8,798.8,1663.3,791.9"/>
	<path class="st0" d="M1661.1,788.6c-42.8-1.5-85.6-3.2-128.8-4.5c-8.2-0.3-16.4-0.4-24.5-0.4c-149.3,0-290.7,43.6-440.7,86
		c-126,35.6-252.7,65.2-381,65.2c-60.3,0-120.9-6.5-181.9-22.1c-173-44.8-333.9-138.1-467.8-251.8C0.5,630.5-31.4,598.4-59.8,564
		v1.6c28.3,34.1,60,66,95.6,96.3C169.9,775.5,330.9,869,504,913.8c61.1,15.6,121.8,22.1,182.1,22.1c128.4,0,255.3-29.6,381.2-65.2
		c150-42.4,291.3-86,440.4-86c8.1,0,16.3,0.1,24.5,0.4c43.2,1.3,86.1,3,128.8,4.5c94.1,3.4,187.5,8.7,283.1,10.3v-1
		C1848.6,797.3,1755.2,792,1661.1,788.6"/>
	<path class="st0" d="M1906.8,786.6c-76.1,0-150.9-1.4-225.9-1.4c-7.3,0-14.6,0-22,0c-42.6,0.2-85.2,0.3-128.2,0.7
		c-157.3,1.4-305.3,50.4-463.4,97c-128.6,37.9-258.7,68.7-390.2,68.7c-60,0-120.2-6.4-180.8-21.4C321.9,886.8,160.6,794.3,26,680.9
		c-31.4-26.5-59.9-54.3-85.7-83.8v1.5c25.7,29.2,53.9,56.7,85.1,83C160,795.2,321.5,887.7,496,931c60.7,15.1,121,21.5,181.1,21.5
		c131.7,0,261.9-30.8,390.5-68.7c158.1-46.6,306-95.5,463.1-96.9c43-0.4,85.6-0.5,128.2-0.7c7.3,0,14.6,0,22,0
		c75,0,149.8,1.4,225.9,1.4c12.4,0,24.9-0.1,37.4-0.1v-1C1931.7,786.6,1919.2,786.6,1906.8,786.6"/>
	<path class="st0" d="M1656.7,781.9c-42.4,1.9-84.8,3.7-127.6,5.8c-156.2,7.7-303.6,59.9-461.7,108.3c-131.2,40.2-264.6,72-399.5,72
		c-59.6,0-119.6-6.2-179.8-20.7C312.6,905.2,150.7,813.9,15.5,700.8c-27.1-22.7-52.1-46.5-75.2-71.4v1.5
		c22.9,24.7,47.7,48.2,74.6,70.7C150.2,814.8,312.2,906.1,488,948.3c60.3,14.5,120.3,20.7,180,20.7c135.1,0,268.5-31.8,399.8-72
		c158.1-48.4,305.4-100.5,461.4-108.2c42.8-2.1,85.2-4,127.6-5.8c95.2-4.2,190-4.9,287.4-7.9v-1C1846.8,777,1752,777.7,1656.7,781.9
		"/>
	<path class="st0" d="M1654.5,778.6c-42.2,3.6-84.5,7.2-127,11c-155.1,14-301.9,69.4-459.9,119.6c-133.8,42.5-270.5,75.3-408.8,75.3
		c-59.3,0-118.9-6-178.7-19.9c-176.9-41.1-339.3-131-475.2-244c-23-19.1-44.5-39-64.7-59.7v1.4c20,20.5,41.3,40.1,64.1,59.1
		c136.1,113,298.6,203,475.6,244.2c59.9,13.9,119.6,19.9,178.9,19.9c138.4,0,275.2-32.8,409.1-75.3
		c158-50.2,304.8-105.6,459.7-119.6c42.5-3.8,84.8-7.4,127-11c95.8-8.1,191.3-11.9,289.6-17.1v-1
		C1845.9,766.7,1750.3,770.4,1654.5,778.6"/>
	<path class="st0" d="M1652.4,775.3c-42.1,5.3-84.1,10.6-126.4,16.2c-154,20.3-300.2,79-458.2,130.9
		c-136.5,44.9-276.4,78.7-418.1,78.7c-59,0-118.2-5.8-177.6-19.2C294,941.9,131.1,853.2-5.6,740.5c-19-15.7-37.1-31.9-54.2-48.8v1.4
		c17,16.6,34.8,32.6,53.6,48.1C130.5,854,293.6,942.8,471.9,982.8c59.5,13.4,118.8,19.2,177.8,19.2c141.8,0,281.9-33.8,418.4-78.7
		c158-52,304.1-110.6,458-130.9c42.3-5.6,84.3-10.9,126.4-16.2c96.3-12.1,192.6-18.9,291.7-26.4v-1
		C1845,756.3,1748.7,763.1,1652.4,775.3"/>
	<path class="st0" d="M1650.2,771.9c-41.9,7-83.7,14.1-125.8,21.4c-152.9,26.5-298.5,88.6-456.4,142.2
		c-139.1,47.3-282.4,82-427.4,82c-58.6,0-117.5-5.7-176.5-18.5C284.7,960.2,121.2,872.8-16.1,760.3c-15.1-12.4-29.7-25.2-43.7-38.3
		v1.4c13.8,12.9,28.2,25.5,43.1,37.7c137.4,112.6,301,200,480.6,239c59.1,12.8,118,18.5,176.7,18.5c145.2,0,288.6-34.8,427.7-82.1
		c157.9-53.7,303.5-115.7,456.2-142.2c42.1-7.3,83.9-14.4,125.8-21.4c96.9-16.2,193.8-26.1,293.9-35.8v-1
		C1844.1,745.8,1747.1,755.8,1650.2,771.9"/>
	<path class="st0" d="M1648,768.6c-41.7,8.7-83.3,17.5-125.2,26.5c-151.8,32.8-296.8,98.1-454.6,153.6
		c-141.7,49.8-288.3,85.4-436.7,85.4c-58.3,0-116.8-5.5-175.4-17.8C275.4,978.5,111.4,892.4-26.6,780.2
		c-11.4-9.3-22.4-18.8-33.2-28.4v1.3c10.6,9.5,21.4,18.8,32.6,27.9c138,112.3,302.2,198.5,483.1,236.4
		c58.7,12.3,117.3,17.8,175.6,17.8c148.6,0,295.3-35.7,437.1-85.5c157.9-55.5,302.9-120.8,454.5-153.5c41.8-9,83.4-17.9,125.2-26.5
		c97.4-20.3,195.1-33.4,296-45.4v-1C1843.2,735.2,1745.5,748.3,1648,768.6"/>
	<path class="st0" d="M1645.8,765.3c-41.6,10.4-83,21-124.5,31.7c-150.7,39-295.1,107.7-452.9,164.9
		c-144.3,52.3-294.3,88.8-446.1,88.8c-57.9,0-116-5.3-174.2-17.1C266.1,996.8,101.5,912.1-37.1,800.1c-7.7-6.3-15.3-12.6-22.7-19
		v1.3c7.2,6.2,14.6,12.4,22.1,18.5c138.7,112.1,303.5,197,485.5,233.8c58.3,11.8,116.5,17.1,174.4,17.1c152,0,302.1-36.6,446.5-88.8
		c157.8-57.2,302.2-125.9,452.8-164.9c41.6-10.8,83-21.3,124.5-31.7c98-24.4,196.3-40.8,298.2-55v-1
		C1842.3,724.5,1743.8,740.8,1645.8,765.3"/>
	<path class="st0" d="M1643.6,761.9c-41.4,12.1-82.6,24.4-123.9,36.9c-149.6,45.3-293.4,117.3-451.1,176.2
		c-146.9,54.8-300.3,92.2-455.6,92.2c-57.5,0-115.2-5.1-173-16.4C256.8,1015.2,91.7,931.7-47.6,819.9c-4.1-3.3-8.2-6.7-12.2-10.1
		v1.3c3.8,3.2,7.7,6.4,11.6,9.6c139.4,111.9,304.7,195.4,488,231.1c57.8,11.3,115.6,16.4,173.2,16.4c155.4,0,309-37.4,455.9-92.3
		c157.8-58.9,301.6-131,451.1-176.2c41.3-12.5,82.5-24.8,123.9-36.9c98.5-28.7,197.6-48.2,300.3-64.8v-1
		C1841.3,713.7,1742.2,733.2,1643.6,761.9"/>
	<path class="st0" d="M1641.4,758.6c-41.2,13.7-82.2,27.8-123.3,42.1c-148.5,51.5-291.7,127-449.4,187.5
		c-149.5,57.4-306.3,95.6-465,95.6c-57.1,0-114.4-4.9-171.7-15.7c-184.4-34.7-350.1-116.8-490-228.3c-0.6-0.5-1.1-0.9-1.7-1.4v1.3
		c0.4,0.3,0.7,0.6,1.1,0.9c140,111.6,305.9,193.9,490.5,228.5c57.4,10.8,114.8,15.7,171.9,15.7c158.9,0,315.8-38.3,465.4-95.7
		c157.8-60.6,300.9-136.1,449.3-187.5c41.1-14.2,82.1-28.3,123.3-42.1c99-33,198.8-55.8,302.5-74.7v-1
		C1840.4,702.8,1740.6,725.6,1641.4,758.6"/>
	<path class="st0" d="M1639.2,755.3c-41.1,15.4-81.8,31.2-122.7,47.2c-147.4,57.7-289.9,136.6-447.6,198.8
		c-152.1,60-312.4,99-474.6,99c-56.7,0-113.6-4.8-170.4-15.1c-181.8-32.9-345-111.1-483.7-218.9v1.3
		C78.9,975.4,242,1053.4,423.7,1086.3c56.9,10.3,113.9,15.1,170.6,15.1c162.3,0,322.8-39.1,474.9-99.1
		c157.8-62.3,300.3-141.2,447.6-198.8c40.9-16,81.6-31.8,122.7-47.2c99.5-37.4,200-63.5,304.7-84.6v-1
		C1839.5,691.8,1738.9,717.9,1639.2,755.3"/>
	<path class="st0" d="M1637,752c-40.9,17.1-81.5,34.7-122.1,52.4c-146.3,63.9-288.2,146.2-445.8,210.2
		C914.4,1077.2,750.6,1117,584.9,1117c-56.2,0-112.7-4.6-169.1-14.4c-178.5-31.1-338.6-105-475.7-208.3v1.3
		c137,103.2,297.1,177,475.5,208c56.4,9.8,112.9,14.4,169.2,14.4c165.8,0,329.8-39.8,484.5-102.6
		c157.7-63.9,299.6-146.3,445.9-210.2c40.6-17.7,81.2-35.3,122.1-52.4c100.1-41.8,201.2-71.3,306.8-94.7v-1
		C1838.5,680.6,1737.2,710.1,1637,752"/>
	<path class="st0" d="M1634.8,748.7c-40.8,18.8-81.1,38-121.5,57.6c-145.4,69.8-286.4,155.9-444.1,221.5
		c-157.4,65.5-324.8,105.8-494.1,105.8c-55.7,0-111.5-4.4-167.3-13.6c-175.1-29.7-332.3-99.1-467.6-198v1.2
		c135.3,98.7,292.5,168.1,467.5,197.8c55.8,9.3,111.8,13.6,167.5,13.6c169.5,0,337-40.3,494.5-105.8
		c157.7-65.6,298.8-151.7,444.1-221.5c40.3-19.6,80.7-38.8,121.5-57.6c100.6-46.4,202.5-79.1,309-104.8v-1
		C1837.6,669.4,1735.6,702.2,1634.8,748.7"/>
	<path class="st0" d="M1632.7,745.3c-40.6,20.4-80.8,41.5-120.9,62.8c-144.3,76-284.7,165.6-442.3,232.8
		c-160,68.2-331,109.3-503.8,109.3c-55.2,0-110.6-4.2-165.8-13c-171.8-27.9-326-93.5-459.6-188v1.2
		c133.6,94.4,287.7,159.9,459.4,187.8c55.3,8.8,110.8,13,166,13c173,0,344.1-41.1,504.2-109.3C1227.6,974.5,1368,885,1512.2,809
		c40.1-21.3,80.2-42.4,120.9-62.8c101-51.1,203.6-87.2,311.1-115.1v-1C1836.6,658,1733.8,694.1,1632.7,745.3"/>
	<path class="st0" d="M1630.5,742c-40.5,22.1-80.4,44.9-120.3,67.9c-143.2,82.3-282.9,175.3-440.6,244.1
		c-162.6,71-337.1,112.8-513.5,112.8c-54.7,0-109.6-4-164.3-12.4C223.2,1128.1,72,1066.2-59.8,976v1.2
		c131.8,90.2,283,151.9,451.4,178.2c54.8,8.4,109.7,12.4,164.5,12.4c176.5,0,351.2-41.8,513.9-112.8
		c157.7-68.9,297.5-161.9,440.7-244.2c39.9-23,79.8-45.8,120.3-67.9c101.5-55.8,204.8-95.3,313.3-125.5v-1
		C1835.6,646.6,1732.1,686.2,1630.5,742"/>
	<path class="st0" d="M1628.3,738.7c-40.3,23.8-80,48.3-119.7,73.1c-142.1,88.5-281.1,185.2-438.8,255.4
		c-164.9,74-342.9,116.3-522.7,116.3c-54.4,0-108.9-3.9-163.3-11.9c-165.3-24.7-313.6-83-443.5-169v1.2
		c129.9,86,278.2,144.1,443.4,168.8c54.4,8,109,11.9,163.5,11.9c179.9,0,358.2-42.3,523.1-116.4c157.9-70.3,296.8-167,439-255.5
		c39.6-24.8,79.3-49.3,119.6-73.1c102-60.4,206-103.4,315.4-135.9v-1C1834.7,635.1,1730.4,678.1,1628.3,738.7"/>
	<path class="st0" d="M1626.1,735.4c-40.1,25.5-79.7,51.8-119,78.3c-141,94.8-279.4,194.8-437.1,266.7
		c-167.6,76.8-349.4,119.8-532.8,119.8c-53.8,0-107.7-3.7-161.4-11.3c-162-23.1-307.5-78-435.5-159.9v1.2
		c128,81.8,273.4,136.6,435.3,159.7c53.8,7.6,107.8,11.3,161.6,11.3c183.6,0,365.5-43.1,533.3-119.9
		c157.8-72,296.2-172.1,437.2-266.8c39.4-26.5,78.9-52.8,119-78.3c102.5-65.2,207.2-111.6,317.6-146.4v-1
		C1833.7,623.6,1728.7,670.1,1626.1,735.4"/>
	<path class="st0" d="M1623.9,732c-183,124.3-352,267.2-553.8,361.5c-170.3,79.6-355.9,123.3-543,123.3
		c-53.1,0-106.4-3.5-159.5-10.8c-158.8-21.7-301.4-73.2-427.4-151.1v1.2c126.1,77.8,268.6,129.3,427.3,151
		c53.1,7.2,106.4,10.8,159.6,10.8c187.3,0,373-43.8,543.5-123.4c201.9-94.4,371-237.3,553.9-361.6c102.9-69.9,208.4-119.9,319.7-157
		v-1.1C1832.7,612,1727,662,1623.9,732"/>
	<path class="st0" d="M1552.3,566.2c-134.7,69.1-280.8,99.6-428.5,99.6c-298.9,0-604.1-125.1-833.2-309.1
		C135.3,232.1,10.7,71.3-59.8-114.4v1.4c70.7,185.2,195,345.7,350,470.1c229.2,184.1,534.5,309.2,833.5,309.2
		c147.8,0,294-30.6,428.8-99.7c151.7-77.8,278-189.6,391.7-313.9v-0.7C1830.4,376.5,1704.1,488.4,1552.3,566.2"/>
	<path class="st0" d="M1727.1,455.9c-55.2,41.1-113.6,78-176.3,109.8c-6.6,3.4-13.2,6.6-19.9,9.8c-59.5,28.5-121,50.1-183.7,65.1
		c-76.5,18.3-154.7,26.9-233.4,26.9c-106.7,0-214.2-15.8-318.9-44.3c-184-50.2-358.7-139-504.2-251.3
		c-58-44.8-111.9-94.6-160.5-148.7c-78.6-88-144.8-187.2-190-297.3v1.3C-14.6,36.8,51.5,135.7,129.8,223.4
		c48.6,54.2,102.5,104,160.5,148.8c145.5,112.4,320.4,201.2,504.4,251.4c104.7,28.5,212.2,44.3,319,44.3c78.7,0,157-8.6,233.5-26.9
		c62.8-15,124.3-36.6,183.8-65.1c6.7-3.2,13.3-6.5,19.9-9.8c62.6-31.8,121.1-68.7,176.3-109.8c78.5-58.4,149.9-126.1,216.9-198.4
		v-0.7C1877.1,329.6,1805.7,397.4,1727.1,455.9"/>
	<path class="st0" d="M1726.1,457.8c-55.5,40-114.1,75.9-176.7,107.3c-6.6,3.3-13.2,6.5-19.9,9.7c-59.4,28.2-120.6,50.1-183.1,65.5
		c-79.5,19.6-161,28.8-242.8,28.8c-102.9,0-206.4-14.4-307.6-40.7c-183.6-47.8-358.5-132.8-505-241.5
		c-58.3-43.3-112.8-91.4-162-144.3C52.6,160.6-13.8,68.4-59.8-35.4v1.2C-13.8,69.2,52.4,161.1,128.6,243
		c49.2,52.8,103.7,101,162,144.3C437.2,496,612.1,581.1,795.8,628.9c101.2,26.3,204.8,40.7,307.8,40.7c81.9,0,163.4-9.1,243-28.8
		c62.5-15.4,123.7-37.3,183.2-65.5c6.7-3.2,13.3-6.4,19.9-9.7c62.6-31.4,121.3-67.3,176.8-107.3c79-56.8,150.6-123.6,217.9-195.2
		v-0.7C1876.9,334,1805.2,400.9,1726.1,457.8"/>
	<path class="st0" d="M1725.1,459.7c-55.9,38.9-114.6,73.8-177.2,104.8c-6.6,3.3-13.2,6.5-19.9,9.6c-59.3,28-120.2,50.2-182.4,65.9
		c-82.7,21-167.4,30.8-252.5,30.8c-99,0-198.5-13.2-296.1-37.2C613.6,588.3,438.7,506.9,291.1,402
		c-58.7-41.8-113.7-88.4-163.4-139.8C53.4,185.5-13,99.8-59.8,1.9v1.1c46.8,97.5,113.1,183,187.1,259.5
		c49.8,51.4,104.8,98,163.5,139.9c147.6,105,322.6,186.3,506,231.7c97.6,24,197.2,37.2,296.2,37.2c85.2,0,169.9-9.8,252.7-30.8
		c62.2-15.8,123.2-37.9,182.5-66c6.6-3.1,13.3-6.3,19.9-9.6c62.6-31,121.4-65.9,177.3-104.9c79.5-55.3,151.4-121.2,218.8-192v-0.7
		C1876.7,338.3,1804.7,404.3,1725.1,459.7"/>
	<path class="st0" d="M1724.1,461.6c-56.2,37.8-115.1,71.7-177.7,102.4c-6.6,3.2-13.2,6.4-19.9,9.5
		c-59.2,27.8-119.9,50.2-181.8,66.4c-86,22.4-174,32.8-262.5,32.8c-95,0-190.4-12-284.3-33.9c-183-42.9-358-120.5-506.6-221.7
		c-59-40.4-114.6-85.4-164.9-135.3C54.2,210-12.2,130.2-59.8,38v1.1C-12.2,131,54,210.6,126,282.1c50.4,50,105.9,95,165,135.4
		c148.7,101.3,323.8,178.9,506.8,221.8c93.9,21.9,189.4,33.9,284.4,33.9c88.5,0,176.7-10.4,262.7-32.8
		c62-16.1,122.6-38.6,181.9-66.4c6.7-3.1,13.3-6.3,19.9-9.5c62.6-30.7,121.5-64.6,177.7-102.4c80-53.7,152.2-118.7,219.8-188.8v-0.7
		C1876.5,342.7,1804.3,407.8,1724.1,461.6"/>
	<path class="st0" d="M1723.1,463.5c-56.5,36.7-115.6,69.6-178.2,99.9c-6.6,3.2-13.2,6.3-19.8,9.4c-59.1,27.6-119.5,50.3-181.2,66.8
		c-89.3,24-180.9,35-272.9,35c-90.8,0-182.2-10.8-272.2-30.6c-182.7-40.5-357.8-114.3-507.4-211.9
		c-59.4-38.9-115.5-82.3-166.4-130.9C54.8,234.2-11.4,159.8-59.8,73v1c48.4,86.6,114.4,160.8,184.5,227.6
		c51,48.6,107.1,92,166.5,130.9c149.7,97.6,324.9,171.5,507.6,212c90.1,19.8,181.4,30.6,272.3,30.6c92,0,183.6-11.1,273-35.1
		c61.7-16.5,122.1-39.2,181.2-66.8c6.6-3.1,13.3-6.2,19.9-9.4c62.6-30.3,121.7-63.2,178.2-99.9c80.6-52.1,152.9-116.2,220.8-185.6
		v-0.7C1876.3,347.1,1803.8,411.3,1723.1,463.5"/>
	<path class="st0" d="M1722.1,465.4c-56.8,35.6-116.1,67.5-178.6,97.4c-6.6,3.2-13.2,6.3-19.8,9.3c-59,27.3-119.1,50.3-180.5,67.2
		c-92.8,25.6-187.9,37.4-283.5,37.4c-86.6,0-173.7-9.7-259.7-27.5c-182.4-38.1-357.6-108.2-508.3-202
		c-59.7-37.4-116.3-79.3-167.9-126.4c-68.6-62.7-134.5-132-183.6-213.8v1c49,81.6,114.8,150.7,183.3,213.2
		c51.6,47.1,108.2,89,168,126.5c150.7,93.9,326,164,508.4,202.1c86.1,17.8,173.2,27.5,259.8,27.5c95.6,0,190.8-11.8,283.6-37.4
		c61.4-16.9,121.5-39.9,180.6-67.2c6.6-3.1,13.2-6.2,19.8-9.3c62.5-29.9,121.8-61.8,178.7-97.5c81.1-50.6,153.7-113.7,221.8-182.5
		v-0.7C1876,351.5,1803.3,414.7,1722.1,465.4"/>
	<path class="st0" d="M1721.2,467.3c-57.2,34.5-116.6,65.4-179.1,95c-6.6,3.1-13.2,6.2-19.8,9.2c-58.9,27.1-118.8,50.4-179.9,67.6
		c-96.4,27.3-195.2,39.8-294.5,39.8c-82.3,0-164.9-8.6-246.9-24.5c-182-35.7-357.3-102-509-192.2c-60.1-36-117.2-76.3-169.4-121.9
		C55.6,281.7-10.1,217.1-59.8,140v0.9c49.7,76.8,115.2,141.2,182,199.7c52.2,45.7,109.3,86,169.4,122
		c151.8,90.2,327.1,156.6,509.2,192.2c82,15.9,164.7,24.5,247,24.5c99.4,0,198.2-12.5,294.7-39.8c61.2-17.3,121-40.5,180-67.6
		c6.6-3,13.2-6.1,19.8-9.2c62.5-29.6,122-60.5,179.2-95c81.6-49,154.5-111.2,222.8-179.3v-0.7
		C1875.8,355.9,1802.8,418.2,1721.2,467.3"/>
	<path class="st0" d="M1720.2,469.1c-57.5,33.5-117.1,63.3-179.6,92.5c-6.6,3.1-13.2,6.1-19.8,9.1c-58.9,26.9-118.4,50.4-179.2,68
		c-100.1,29.1-202.7,42.4-305.9,42.4c-77.8,0-156-7.6-233.7-21.6c-181.7-33.2-357.1-95.8-509.9-182.3
		c-60.4-34.5-118.1-73.2-170.8-117.5C55.8,305-9.5,244.8-59.8,172.2v0.9c50.2,72.3,115.4,132.4,180.7,187.1
		c52.8,44.3,110.5,83,170.9,117.5c152.8,86.5,328.2,149.1,510,182.3c77.7,14,155.9,21.6,233.8,21.6c103.2,0,205.9-13.3,306.1-42.4
		c60.9-17.6,120.4-41.2,179.3-68.1c6.6-3,13.2-6.1,19.8-9.1c62.5-29.2,122.1-59.1,179.6-92.5c82.1-47.4,155.3-108.7,223.8-176.1
		v-0.7C1875.6,360.3,1802.4,421.6,1720.2,469.1"/>
	<path class="st0" d="M1719.2,471c-57.8,32.4-117.6,61.2-180.1,90c-6.6,3-13.2,6.1-19.8,9.1c-58.8,26.7-118,50.5-178.6,68.5
		c-104,31-210.5,45.1-317.7,45.1c-73.2,0-146.8-6.6-220.1-18.9C621.5,634,446.1,575.2,292.3,492.4c-60.8-33-118.9-70.2-172.3-113
		C56,328.1-9,271.9-59.8,203.7v0.8C-9,272.6,55.8,328.6,119.7,379.8c53.4,42.8,111.6,80,172.4,113
		c153.8,82.8,329.4,141.7,510.8,172.5c73.3,12.3,146.9,18.9,220.2,18.9c107.3,0,213.8-14.1,317.8-45.1
		c60.6-18,119.9-41.8,178.7-68.5c6.6-3,13.2-6,19.8-9.1c62.5-28.8,122.2-57.7,180.1-90.1c82.6-45.9,156-106.3,224.8-172.9v-0.7
		C1875.4,364.6,1801.9,425.1,1719.2,471"/>
	<path class="st0" d="M1718.2,472.9c-58.2,31.3-118.1,59.1-180.6,87.6c-6.6,3-13.2,6-19.8,9c-58.7,26.5-117.7,50.5-178,68.9
		c-107.9,33-218.5,47.9-329.9,47.9c-68.5,0-137.4-5.7-206-16.3c-181.1-28.4-356.8-83.2-511.5-162.6
		c-61.2-31.4-119.8-67.2-173.8-108.5C56,351-8.5,298.7-59.8,234.4v0.8c51.2,64,115.7,116.2,178.2,164.1
		c54.1,41.4,112.7,77.2,173.9,108.6C447,587.3,622.7,642.1,803.9,670.5c68.7,10.6,137.6,16.3,206.1,16.3c111.4,0,222.1-15,330.1-48
		c60.3-18.4,119.4-42.4,178-68.9c6.6-3,13.2-6,19.8-9c62.5-28.4,122.4-56.3,180.6-87.6c83.1-44.3,156.8-103.8,225.8-169.7v-0.7
		C1875.2,369,1801.4,428.5,1718.2,472.9"/>
	<path class="st0" d="M1717.2,474.8c-58.5,30.2-118.6,57-181,85.1c-6.6,3-13.2,5.9-19.8,8.9c-58.6,26.2-117.3,50.6-177.3,69.3
		c-112,35.1-226.8,50.9-342.6,50.9c-63.7,0-127.6-4.8-191.6-13.8c-180.8-26-356.6-77-512.3-152.7c-61.5-29.9-120.6-64.1-175.3-104.1
		C56,373.6-8.1,324.9-59.8,264.5v0.8c51.6,60.2,115.7,108.8,176.9,153.6c54.7,40,113.8,74.2,175.4,104.1
		c155.7,75.8,331.6,126.8,512.4,152.8c64,9,127.9,13.8,191.6,13.8c115.8,0,230.7-15.9,342.8-51c60.1-18.7,118.8-43.1,177.4-69.3
		c6.6-3,13.2-5.9,19.8-8.9c62.4-28.1,122.5-55,181-85.1c83.6-42.8,157.6-101.3,226.8-166.5V308
		C1874.9,373.4,1800.9,432,1717.2,474.8"/>
	<path class="st0" d="M1716.3,476.7c-58.8,29.1-119.1,54.9-181.5,82.7c-6.6,2.9-13.2,5.8-19.7,8.8c-58.5,26-116.9,50.6-176.7,69.7
		C1222,675.2,1102.9,692,982.6,692c-58.7,0-117.6-4-176.6-11.5c-180.5-23.6-356.4-70.8-513.1-142.8C231,509.1,171.4,476.5,116.1,438
		C56,396.1-7.7,350.8-59.8,294.1v0.8c52,56.6,115.6,101.8,175.6,143.6c55.3,38.5,114.9,71.2,176.8,99.6
		c156.8,72.1,332.7,119.3,513.2,142.9c59,7.6,118,11.5,176.6,11.5c120.4,0,239.6-16.8,355.9-54.1c59.8-19.1,118.3-43.7,176.7-69.8
		c6.6-2.9,13.2-5.8,19.7-8.8c62.4-27.7,122.7-53.6,181.5-82.7c84.1-41.2,158.3-98.8,227.7-163.4v-0.7
		C1874.7,377.7,1800.4,435.4,1716.3,476.7"/>
	<path class="st0" d="M1715.3,478.6c-59.2,28-119.6,52.8-182,80.2c-6.6,2.9-13.1,5.8-19.7,8.7c-58.4,25.8-116.5,50.7-176.1,70.2
		c-120.7,39.7-244.4,57.5-369.5,57.5c-53.5,0-107.2-3.3-161.1-9.4c-180.1-21.1-356.1-64.6-513.9-133c-62.3-27-122.3-58.1-178.3-95.1
		c-59-39.1-122.3-81.2-174.6-134.5v0.7C-7.4,376.9,55.7,419,114.6,458c56,37.1,116.1,68.2,178.3,95.2
		c157.8,68.4,333.8,111.9,514,133c53.9,6.2,107.7,9.4,161.1,9.4c125.1,0,248.8-17.8,369.6-57.5c59.5-19.5,117.7-44.4,176.1-70.2
		c6.6-2.9,13.2-5.8,19.7-8.7c62.4-27.3,122.8-52.2,182-80.2c84.6-39.7,159.1-96.4,228.7-160.2v-0.7
		C1874.5,382.1,1800,438.9,1715.3,478.6"/>
	<path class="st0" d="M1714.3,480.5c-59.5,26.9-120.1,50.7-182.5,77.7c-6.6,2.8-13.1,5.7-19.7,8.6c-58.3,25.6-116.2,50.7-175.4,70.6
		c-125.3,42.2-253.7,61-383.7,61c-48.1,0-96.5-2.6-145-7.5c-179.8-18.7-355.9-58.4-514.7-123.1c-62.6-25.5-123.1-55.1-179.7-90.7
		C55.6,440.7-7.1,401.5-59.8,351.6v0.7c52.6,49.8,115.3,88.9,173.1,125.2c56.6,35.6,117.2,65.2,179.8,90.7
		c158.9,64.7,335,104.4,514.8,123.2c48.6,4.9,96.9,7.5,145.1,7.5c130.1,0,258.5-18.8,383.9-61c59.3-19.9,117.2-45,175.5-70.6
		c6.6-2.9,13.2-5.7,19.7-8.6c62.4-27,123-50.8,182.5-77.7c85.1-38.1,159.9-93.9,229.7-157v-0.7
		C1874.3,386.5,1799.5,442.3,1714.3,480.5"/>
	<path class="st0" d="M1713.3,482.4c-59.8,25.8-120.6,48.7-182.9,75.3c-6.6,2.8-13.1,5.6-19.7,8.5c-58.2,25.3-115.8,50.8-174.8,71
		c-130.1,44.8-263.3,64.7-398.6,64.7c-42.6,0-85.4-2-128.4-5.8c-179.5-16.3-355.6-52.2-515.5-113.3c-62.9-24-123.9-52.1-181.2-86.2
		c-56.9-33.9-119.2-70.2-172.1-117v0.7C-6.9,427,55.3,463.2,112,497c57.3,34.1,118.3,62.2,181.3,86.2c159.9,61,336.1,97,515.6,113.3
		c43,3.8,85.8,5.7,128.4,5.7c135.3,0,268.5-19.9,398.7-64.7c59-20.2,116.6-45.7,174.8-71c6.6-2.9,13.1-5.7,19.7-8.5
		c62.4-26.6,123.1-49.5,182.9-75.3c85.6-36.5,160.6-91.4,230.7-153.9v-0.7C1874.1,390.8,1799,445.8,1713.3,482.4"/>
	<path class="st0" d="M1712.3,484.3c-60.2,24.7-121.1,46.6-183.4,72.8c-6.6,2.8-13.1,5.6-19.7,8.4c-58.1,25.1-115.4,50.8-174.1,71.4
		c-135.1,47.6-273.3,68.6-414.1,68.6c-36.8,0-73.8-1.4-111-4.2c-179.2-13.9-355.4-46.1-516.3-103.4
		c-63.3-22.5-124.8-49.1-182.7-81.7C55.1,484.6-6.7,451-59.8,407.3v0.6C-6.7,451.6,55,485.1,110.8,516.6
		c58,32.7,119.5,59.2,182.8,81.8c160.9,57.3,337.2,89.5,516.4,103.4c37.2,2.8,74.2,4.2,111.1,4.2c140.9,0,279.1-21,414.2-68.6
		c58.7-20.6,116.1-46.3,174.2-71.4c6.6-2.8,13.1-5.6,19.7-8.4c62.3-26.2,123.2-48.1,183.4-72.8c86.1-35,161.4-89,231.7-150.7v-0.7
		C1873.9,395.2,1798.5,449.2,1712.3,484.3"/>
	<path class="st0" d="M1711.3,486.1c-60.5,23.6-121.5,44.5-183.9,70.3c-6.6,2.7-13.1,5.5-19.7,8.3c-58,24.9-115.1,50.9-173.5,71.8
		c-140.3,50.5-283.6,72.7-430.3,72.7c-30.9,0-61.9-1-93-2.9c-178.9-11.5-355.2-39.9-517.1-93.5c-63.6-21.1-125.6-46.1-184.2-77.3
		C54.8,506.5-6.5,475.4-59.8,434.5v0.6C-6.5,476,54.7,507,109.5,536.1c58.6,31.2,120.6,56.2,184.3,77.3
		c162,53.6,338.3,82.1,517.2,93.5c31.2,1.9,62.2,2.9,93,2.9c146.7,0,290.1-22.2,430.5-72.8c58.5-21,115.5-47,173.5-71.9
		c6.6-2.8,13.1-5.6,19.7-8.3c62.3-25.9,123.4-46.7,183.9-70.3c86.6-33.5,162.2-86.5,232.7-147.5v-0.7
		C1873.6,399.5,1798,452.7,1711.3,486.1"/>
	<path class="st0" d="M1710.4,488c-60.8,22.5-122,42.4-184.4,67.9c-6.6,2.7-13.1,5.4-19.7,8.2c-57.9,24.7-114.7,50.9-172.9,72.3
		c-145.6,53.6-294.4,77.1-447.3,77.1c-24.6,0-49.4-0.6-74.2-1.8c-178.6-9-354.9-33.7-517.9-83.7c-64-19.6-126.4-43.1-185.7-72.8
		c-54-27.1-114.8-55.7-168.2-93.9v0.6c53.4,38.1,114.1,66.7,168,93.7c59.3,29.7,121.7,53.2,185.7,72.8c163,49.9,339.4,74.6,518,83.7
		c24.9,1.2,49.6,1.8,74.2,1.8c152.9,0,301.7-23.5,447.4-77.1c58.2-21.3,115-47.6,172.9-72.3c6.5-2.8,13.1-5.5,19.6-8.2
		c62.3-25.5,123.5-45.3,184.3-67.9c87.1-31.9,162.9-84.1,233.7-144.4v-0.7C1873.4,403.9,1797.6,456.1,1710.4,488"/>
	<path class="st0" d="M1709.4,489.9c-61.2,21.4-122.5,40.3-184.8,65.4c-6.5,2.6-13.1,5.3-19.6,8.1c-57.8,24.5-114.3,51-172.2,72.7
		c-151.3,56.9-305.7,81.7-465.1,81.7c-18.1,0-36.3-0.3-54.6-0.9c-178.3-6.6-354.7-27.6-518.7-73.8c-64.3-18.1-127.2-40.1-187.1-68.3
		C54,549.7-6.3,523.4-59.8,487.8v0.6c53.5,35.5,113.7,61.8,166.7,86.7c60,28.2,122.9,50.2,187.2,68.4
		c164.1,46.3,340.6,67.2,518.8,73.8c18.3,0.6,36.5,0.9,54.6,0.9c159.5,0,313.9-24.8,465.3-81.7c57.9-21.7,114.4-48.3,172.2-72.7
		c6.5-2.8,13.1-5.5,19.6-8.1c62.3-25.1,123.7-44,184.8-65.4c87.6-30.4,163.7-81.6,234.7-141.2v-0.7
		C1873.2,408.2,1797.1,459.5,1709.4,489.9"/>
	<path class="st0" d="M1708.4,491.8c-61.5,20.3-123,38.2-185.3,62.9c-6.5,2.6-13.1,5.3-19.6,8c-57.7,24.2-114,51-171.6,73.1
		c-157.2,60.4-317.3,86.5-483.8,86.5c-11.3,0-22.7-0.1-34-0.3c-177.9-4.2-354.4-21.4-519.5-63.9c-64.7-16.7-128-37.1-188.6-63.9
		C53.6,571.2-6.2,547.1-59.8,514v0.6c53.5,33,113.3,57.1,165.4,80.1c60.6,26.7,124,47.2,188.7,63.9c165.1,42.6,341.7,59.8,519.6,64
		c11.4,0.2,22.7,0.4,34.1,0.4c166.5,0,326.8-26.1,484-86.6c57.6-22.1,113.9-48.9,171.6-73.1c6.5-2.7,13.1-5.4,19.6-8
		c62.3-24.8,123.8-42.6,185.3-62.9c88.1-28.8,164.5-79.1,235.7-138.1v-0.7C1873,412.6,1796.6,463,1708.4,491.8"/>
	<path class="st0" d="M1707.4,493.7c-61.8,19.2-123.5,36.1-185.8,60.5c-6.5,2.6-13.1,5.2-19.6,7.9c-57.6,24-113.6,51.1-170.9,73.6
		c-163.3,64.1-329.5,91.7-503.6,91.7c-4.2,0-8.3,0-12.5,0c-177.6-1.8-354.2-15.3-520.3-54.1c-65-15.2-128.8-34.2-190.1-59.4
		C53.1,592.6-6.2,570.6-59.8,540v0.6c53.6,30.6,112.8,52.6,164.2,73.7c61.3,25.2,125.1,44.2,190.2,59.4
		C460.8,712.5,637.4,726,815,727.8c4.2,0,8.3,0,12.5,0.1c174.1,0,340.4-27.6,503.7-91.7c57.4-22.4,113.4-49.5,171-73.5
		c6.5-2.7,13.1-5.3,19.6-7.9c62.2-24.4,123.9-41.2,185.8-60.5c88.6-27.3,165.3-76.7,236.6-134.9v-0.7
		C1872.8,416.9,1796.1,466.4,1707.4,493.7"/>
	<path class="st0" d="M1706.4,495.6c-62.1,18.2-124,34-186.3,58c-6.5,2.5-13.1,5.1-19.6,7.8c-57.5,23.8-113.2,51.1-170.3,74
		c-166.5,66.8-335.9,96-514.2,97.1c-5.3,0-10.5,0-15.8,0c-172,0-343.1-10.5-505.3-44.2c-65.4-13.9-129.6-31.2-191.6-54.9
		C52.6,614-6.2,593.9-59.8,565.6v0.6c53.6,28.3,112.3,48.3,162.9,67.7c62,23.7,126.3,41.1,191.7,55C457.1,722.5,628.2,733,800.2,733
		c5.3,0,10.5,0,15.8,0c178.4-1.1,347.8-30.3,514.4-97.1c57.1-22.8,112.8-50.2,170.3-74c6.5-2.7,13-5.3,19.6-7.8
		c62.2-24,124.1-39.8,186.2-58c89.2-25.7,166-74.2,237.6-131.8v-0.7C1872.5,421.3,1795.6,469.8,1706.4,495.6"/>
	<path class="st0" d="M1705.5,497.5c-62.5,17.1-124.5,31.9-186.8,55.6c-6.5,2.5-13.1,5.1-19.6,7.7c-57.4,23.6-112.8,51.2-169.7,74.4
		c-165.9,67.9-334.2,99.1-512.4,102.6c-25.8,0.4-51.6,0.7-77.4,0.7c-150.9,0-300.8-8.5-444.5-35C229.4,691,164.7,675.1,102,652.9
		c-49.9-17.7-108.2-35.8-161.8-62v0.6c53.6,26.1,111.8,44.2,161.6,61.9c62.7,22.2,127.4,38.1,193.1,50.5
		c143.8,26.6,293.7,35,444.6,35c25.8,0,51.6-0.3,77.4-0.7c178.3-3.5,346.7-34.7,512.6-102.6c56.8-23.2,112.3-50.8,169.7-74.4
		c6.5-2.7,13-5.2,19.6-7.7c62.2-23.7,124.2-38.5,186.7-55.5c89.7-24.2,166.8-71.8,238.6-128.6v-0.6
		C1872.3,425.6,1795.2,473.3,1705.5,497.5"/>
	<path class="st0" d="M1704.5,499.4c-62.8,16-125,29.8-187.2,53.1c-6.5,2.5-13,5-19.6,7.6c-57.3,23.4-112.5,51.3-169,74.8
		c-165.2,69-332.6,102.1-510.6,108c-47.1,1.5-94.2,2.3-141.2,2.3c-129.2,0-257.4-6.7-381.6-26.8c-66-10.9-131.2-25.3-194.6-46
		C51.5,656.4-6.2,640.1-59.8,616v0.6c53.6,24,111.3,40.3,160.4,56.3c63.4,20.7,128.6,35.1,194.6,46
		c124.2,20.1,252.4,26.8,381.7,26.8c47,0,94.1-0.9,141.2-2.4c178.1-5.9,345.5-39,510.8-108c56.6-23.6,111.7-51.5,169-74.8
		c6.5-2.6,13-5.2,19.5-7.6c62.2-23.3,124.4-37.1,187.2-53.1c90.2-22.7,167.6-69.3,239.6-125.5v-0.6
		C1872.1,430,1794.7,476.7,1704.5,499.4"/>
	<path class="st0" d="M1703.5,501.3c-63.1,14.9-125.5,27.7-187.7,50.6c-6.5,2.4-13,4.9-19.5,7.5c-57.2,23.1-112.1,51.3-168.4,75.2
		C1163.3,704.8,996.9,739.8,819,748.1c-68.1,3.1-136.3,5.1-204.2,5.1c-107.8,0-214.8-5.2-319.4-19.7c-66.4-9.4-132-22.4-196-41.5
		c-48.5-14.5-105.7-29-159.2-51.1v0.5c53.5,22,110.7,36.5,159.1,51c64,19.1,129.7,32.1,196.1,41.5C400,748.5,507,753.7,614.9,753.7
		c67.9,0,136.1-2.1,204.2-5.1c177.9-8.3,344.3-43.3,509-113.5c56.3-23.9,111.2-52.1,168.4-75.2c6.5-2.6,13-5.1,19.5-7.5
		c62.2-22.9,124.5-35.7,187.7-50.6c90.7-21.2,168.3-66.9,240.6-122.4v-0.6C1871.9,434.3,1794.2,480.1,1703.5,501.3"/>
	<path class="st0" d="M1702.5,503.2c-63.5,13.8-126,25.6-188.2,48.2c-6.5,2.4-13,4.8-19.5,7.4c-57.1,22.9-111.8,51.4-167.8,75.7
		c-163.9,71.3-329.3,108.2-507,118.9c-88.3,5.2-176.8,9-264.7,9c-87.4,0-174.2-3.8-259.7-13.8c-66.8-8-132.8-19.5-197.5-37.1
		c-47.8-13-104.5-25.9-157.9-46v0.5C-6.4,686.1,50.3,699,98,712c64.7,17.6,130.8,29.1,197.6,37.1c85.5,10,172.3,13.8,259.7,13.8
		c87.9,0,176.4-3.8,264.7-9c177.8-10.7,343.2-47.6,507.2-118.9c56-24.3,110.6-52.8,167.7-75.7c6.5-2.6,13-5.1,19.5-7.4
		c62.2-22.5,124.7-34.4,188.1-48.1c91.2-19.6,169.1-64.4,241.6-119.2v-0.6C1871.7,438.6,1793.7,483.5,1702.5,503.2"/>
	<path class="st0" d="M1701.5,505c-63.8,12.7-126.5,23.5-188.7,45.7c-6.5,2.3-13,4.8-19.5,7.4c-57,22.7-111.4,51.4-167.1,76.1
		c-163.3,72.4-327.6,111.2-505.2,124.4c-107.2,7.8-214.8,14-321.6,14c-68.3,0-136.3-2.6-203.5-8.9c-67.1-6.5-133.6-16.6-199-32.6
		C49.7,719.5-6.5,708.2-59.8,690v0.5c53.3,18.2,109.5,29.5,156.5,41c65.4,16,132,26.1,199.1,32.6c67.3,6.4,135.3,8.9,203.6,8.9
		c106.8,0,214.5-6.3,321.7-14c177.6-13.1,342-52,505.4-124.4c55.8-24.7,110.1-53.4,167.1-76.1c6.5-2.6,13-5,19.5-7.3
		c62.1-22.2,124.8-33,188.6-45.7c91.7-18.1,169.9-62,242.6-116.1v-0.6C1871.5,443,1793.2,487,1701.5,505"/>
	<path class="st0" d="M1700.6,506.9c-64.1,11.6-127,21.4-189.1,43.2c-6.5,2.3-13,4.7-19.5,7.3c-56.9,22.5-111,51.5-166.5,76.5
		c-162.6,73.5-326,114.3-503.4,129.8c-124.7,10.8-250.2,20.2-374.7,20.2c-50.6,0-101.1-1.6-151.3-5.2c-67.5-5-134.4-13.7-200.5-28.1
		c-46.5-10.2-102.2-20-155.4-36.4v0.5C-6.6,731.1,49,740.9,95.5,751.1c66.1,14.5,133.1,23.1,200.6,28.1
		c50.2,3.6,100.6,5.2,151.3,5.2c124.5,0,250.1-9.4,374.8-20.2c177.5-15.5,340.8-56.3,503.5-129.9c55.5-25,109.5-54.1,166.5-76.5
		c6.5-2.6,13-5,19.5-7.3c62.1-21.8,124.9-31.6,189.1-43.2c92.2-16.6,170.6-59.6,243.6-113v-0.6
		C1871.2,447.3,1792.7,490.4,1700.6,506.9"/>
	<path class="st0" d="M1699.6,508.8c-64.5,10.5-127.5,19.3-189.6,40.8c-6.5,2.2-13,4.6-19.5,7.2c-56.9,22.2-110.6,51.5-165.8,76.9
		c-162,74.7-324.3,117.3-501.6,135.3c-140.8,14.1-282.9,27.4-424,27.4c-34.3,0-68.6-0.8-102.8-2.5c-67.8-3.5-135.3-10.8-202-23.7
		c-45.9-8.9-101.1-17.2-154.1-31.9v0.5c53.1,14.7,108.2,23,154,31.8c66.7,12.9,134.2,20.1,202,23.7c34.2,1.7,68.5,2.5,102.8,2.5
		c141.1,0,283.2-13.2,424-27.4c177.3-17.9,339.7-60.6,501.7-135.3c55.2-25.4,109-54.7,165.8-76.9c6.5-2.5,13-4.9,19.5-7.2
		c62.1-21.4,125.1-30.2,189.5-40.7c92.7-15,171.4-57.1,244.6-109.8v-0.6C1871,451.6,1792.3,493.8,1699.6,508.8"/>
	<path class="st0" d="M1698.6,510.7c-64.8,9.4-128,17.2-190.1,38.3c-6.5,2.2-13,4.6-19.5,7.1c-56.8,22-110.3,51.6-165.2,77.4
		c-161.4,75.8-322.7,120.4-499.7,140.7C668.5,792,511,809.7,354.5,809.7c-19.4,0-38.7-0.3-58-0.8c-68.2-2.1-136.1-8-203.5-19.2
		C47.7,782-6.9,775-59.8,762v0.5c52.9,13,107.5,19.9,152.7,27.6c67.4,11.2,135.3,17.1,203.5,19.2c19.3,0.6,38.7,0.8,58,0.8
		c156.6,0,314.1-17.7,469.6-35.6c177.1-20.3,338.5-64.9,499.9-140.8c54.9-25.8,108.5-55.3,165.2-77.3c6.5-2.5,13-4.9,19.5-7.1
		c62.1-21.1,125.2-28.9,190-38.3c93.2-13.5,172.2-54.7,245.6-106.7v-0.6C1870.8,455.9,1791.8,497.2,1698.6,510.7"/>
	<path class="st0" d="M1697.6,512.6c-71.9,9.2-141.7,16.5-210,42.8c-56.7,21.8-109.9,51.6-164.6,77.8
		c-160.7,76.9-321,123.4-497.9,146.2C656,801.1,484.3,824,313.1,824c-74,0-147.9-4.3-221.4-14.8c-44.7-6.4-98.8-12-151.5-23.4v0.5
		c52.7,11.4,106.8,17,151.5,23.4c73.5,10.5,147.4,14.8,221.5,14.8c171.2,0,343-22.9,512-44.6c177-22.8,337.3-69.3,498.1-146.2
		c54.7-26.2,107.9-56,164.5-77.8c68.3-26.3,138-33.6,209.9-42.8c93.7-12,172.9-52.3,246.5-103.6v-0.6
		C1870.6,460.3,1791.3,500.6,1697.6,512.6"/>
</g>
<g id="Layer_3">
</g>
</svg>
